<svg width="243" height="48" viewBox="0 0 243 48" fill="none" xmlns="http://www.w3.org/2000/svg">
<path d="M197.07 14.3852C195.495 14.8857 195.479 13.468 195.479 13.468C196.876 13.7157 197.014 12.5307 197.014 12.5307H194.223V11.2056H195.546C195.546 11.2056 195.321 9.43871 194.022 9.43871C192.822 9.43871 192.658 10.7751 192.877 11.3295C192.276 11.4321 191.395 10.3872 191.395 9.15717C191.395 7.59051 192.632 6.75338 193.723 6.75338C195.484 6.75338 196.802 8.79929 196.802 11.2068H197.342C197.342 11.2068 197.458 10.0506 197.217 8.99074C196.838 7.32523 196.016 6.34169 195.998 5.21175C195.967 3.24843 197.142 2.93435 198.082 1.22129C199.021 2.93435 200.197 3.24843 200.164 5.21175C200.147 6.34044 199.324 7.32523 198.947 8.99074C198.707 10.0519 198.82 11.2068 198.82 11.2068H199.36C199.36 8.79929 200.678 6.75338 202.441 6.75338C203.532 6.75338 204.765 7.59051 204.765 9.15717C204.765 10.3872 203.886 11.4321 203.285 11.3295C203.504 10.7764 203.34 9.43871 202.14 9.43871C200.841 9.43871 200.616 11.2056 200.616 11.2056H201.939V12.5307H199.147C199.147 12.5307 199.285 13.7157 200.682 13.468C200.682 13.468 200.666 14.887 199.09 14.3852C199.09 14.3852 199.028 15.6515 198.081 16.1095C197.133 15.6515 197.07 14.3852 197.07 14.3852ZM210.615 0.943496H185.547V16.3998H210.615V0.943496Z" fill="#2A5BA9"/>
<path d="M229.456 14.3852C227.879 14.8857 227.865 13.468 227.865 13.468C229.262 13.7157 229.4 12.5307 229.4 12.5307H226.609V11.2056H227.931C227.931 11.2056 227.707 9.43871 226.407 9.43871C225.207 9.43871 225.043 10.7751 225.263 11.3295C224.662 11.4321 223.781 10.3872 223.781 9.15717C223.781 7.59051 225.018 6.75338 226.107 6.75338C227.87 6.75338 229.187 8.79929 229.187 11.2068H229.727C229.727 11.2068 229.843 10.0506 229.601 8.99074C229.223 7.32523 228.401 6.34169 228.384 5.21175C228.352 3.24843 229.528 2.93435 230.466 1.22129C231.406 2.93435 232.582 3.24843 232.55 5.21175C232.531 6.34044 231.71 7.32523 231.331 8.99074C231.091 10.0519 231.207 11.2068 231.207 11.2068H231.746C231.746 8.79929 233.063 6.75338 234.827 6.75338C235.916 6.75338 237.153 7.59051 237.153 9.15717C237.153 10.3872 236.272 11.4321 235.671 11.3295C235.89 10.7764 235.727 9.43871 234.527 9.43871C233.227 9.43871 233.003 11.2056 233.003 11.2056H234.325V12.5307H231.534C231.534 12.5307 231.672 13.7157 233.069 13.468C233.069 13.468 233.053 14.887 231.478 14.3852C231.478 14.3852 231.415 15.6515 230.467 16.1095C229.519 15.6515 229.456 14.3852 229.456 14.3852ZM243 0.943496H217.932V16.3998H243V0.943496Z" fill="#2A5BA9"/>
<path d="M197.07 37.2318C195.495 37.7323 195.479 36.3133 195.479 36.3133C196.876 36.5623 197.014 35.3773 197.014 35.3773H194.223V34.0522H195.546C195.546 34.0522 195.321 32.2853 194.022 32.2853C192.822 32.2853 192.658 33.6217 192.877 34.1761C192.276 34.2774 191.395 33.2326 191.395 32.0025C191.395 30.4371 192.632 29.6 193.723 29.6C195.484 29.6 196.802 31.6459 196.802 34.0534H197.342C197.342 34.0534 197.458 32.8972 197.217 31.8374C196.838 30.1719 196.016 29.1883 195.998 28.0584C195.967 26.0938 197.142 25.7785 198.082 24.0679C199.021 25.7785 200.197 26.0938 200.164 28.0584C200.147 29.1871 199.324 30.1706 198.947 31.8374C198.707 32.8985 198.82 34.0534 198.82 34.0534H199.36C199.36 31.6459 200.678 29.6 202.441 29.6C203.532 29.6 204.765 30.4371 204.765 32.0025C204.765 33.2326 203.886 34.2774 203.285 34.1761C203.504 33.623 203.34 32.2853 202.14 32.2853C200.841 32.2853 200.616 34.0522 200.616 34.0522H201.939V35.3773H199.147C199.147 35.3773 199.285 36.5623 200.682 36.3133C200.682 36.3133 200.666 37.7336 199.09 37.2318C199.09 37.2318 199.028 38.4969 198.081 38.9549C197.133 38.4969 197.07 37.2318 197.07 37.2318ZM210.615 23.7901H185.547V39.2464H210.615V23.7901Z" fill="#2A5BA9"/>
<path d="M229.456 37.2318C227.879 37.7323 227.865 36.3133 227.865 36.3133C229.262 36.5623 229.4 35.3773 229.4 35.3773H226.609V34.0522H227.931C227.931 34.0522 227.707 32.2853 226.407 32.2853C225.207 32.2853 225.043 33.6217 225.263 34.1761C224.662 34.2774 223.781 33.2326 223.781 32.0025C223.781 30.4371 225.018 29.6 226.107 29.6C227.87 29.6 229.187 31.6459 229.187 34.0534H229.727C229.727 34.0534 229.843 32.8972 229.601 31.8374C229.223 30.1719 228.401 29.1883 228.384 28.0584C228.352 26.0938 229.528 25.7785 230.466 24.0679C231.406 25.7785 232.582 26.0938 232.55 28.0584C232.531 29.1871 231.71 30.1706 231.331 31.8374C231.091 32.8985 231.207 34.0534 231.207 34.0534H231.746C231.746 31.6459 233.063 29.6 234.827 29.6C235.916 29.6 237.153 30.4371 237.153 32.0025C237.153 33.2326 236.272 34.2774 235.671 34.1761C235.89 33.623 235.727 32.2853 234.527 32.2853C233.227 32.2853 233.003 34.0522 233.003 34.0522H234.325V35.3773H231.534C231.534 35.3773 231.672 36.5623 233.069 36.3133C233.069 36.3133 233.053 37.7336 231.478 37.2318C231.478 37.2318 231.415 38.4969 230.467 38.9549C229.519 38.4969 229.456 37.2318 229.456 37.2318ZM243 23.7901H217.932V39.2464H243V23.7901Z" fill="#2A5BA9"/>
<path d="M65.6651 33.1775L65.6638 12.7172H65.5096C64.7882 13.3866 62.1151 13.4404 60.982 13.4404H59.0167V13.6069C61.2867 15.0096 60.9783 17.0818 60.9783 19.6583L60.9808 28.3186C60.9808 32.6457 56.7542 35.6839 53.3473 35.6839C48.8595 35.6839 46.9962 32.478 46.9962 27.3051V12.7184H46.842C46.1205 13.3866 43.4301 13.4417 42.297 13.4417H40.3479V13.6081C42.6179 15.0108 42.3094 17.083 42.3094 19.6608V28.2899C42.3094 36.1895 45.715 39.9422 51.7999 39.9422C55.4133 39.9422 59.1224 38.6521 60.9808 35.5725V39.3052H67.6266V39.1363C65.3566 37.8437 65.6651 35.7615 65.6651 33.1775Z" fill="black"/>
<path d="M75.9714 22.236C76.5921 18.7223 79.1719 16.4912 82.6322 16.4912C86.3488 16.4912 88.7221 18.3319 89.2893 22.236H75.9714ZM94.7112 25.4982C94.9164 18.2768 90.1152 12.8285 83.0962 12.8285C75.4042 12.8285 70.195 18.4432 70.195 26.2302C70.195 34.076 76.2302 40.0523 85.0067 40.0523C87.4335 40.0523 89.91 39.6644 92.1315 38.6646L94.7124 33.3978H94.5557C92.18 35.4286 89.1885 36.3909 86.0901 36.3909C80.2577 36.3909 75.8707 32.3842 75.7674 25.4994L94.7112 25.4982Z" fill="black"/>
<path d="M98.8059 0.833378C100.041 0.833378 102.565 0.755798 103.326 0H103.479V35.4324C104.865 35.8241 106.301 36.1019 107.737 36.1019C113.378 36.1019 116.608 32.1339 116.608 26.6018C116.608 21.1786 114.095 16.9879 108.917 16.9879C107.277 16.9879 105.994 17.4347 104.608 18.218L107.379 13.4479C108.556 13 109.788 12.8298 111.019 12.8298C116.868 12.8298 121.841 17.9377 121.841 25.5958C121.841 34.37 115.941 40.0435 106.609 40.0435C103.122 40.0435 99.7725 39.4254 97.2463 39.0312V38.8598C98.9491 38.0727 98.7947 36.2145 98.7947 34.37V8.61284C98.7947 6.02636 99.1032 2.40629 96.8855 0.999805V0.833378H98.8059Z" fill="black"/>
<path d="M131.004 22.236C131.626 18.7223 134.205 16.4912 137.665 16.4912C141.38 16.4912 143.755 18.3319 144.323 22.236H131.004ZM149.742 25.4982C149.95 18.2768 145.149 12.8285 138.129 12.8285C130.438 12.8285 125.227 18.4432 125.227 26.2302C125.227 34.076 131.264 40.0523 140.038 40.0523C142.465 40.0523 144.944 39.6644 147.162 38.6646L149.743 33.3978H149.59C147.215 35.4286 144.22 36.3909 141.123 36.3909C135.291 36.3909 130.903 32.3842 130.799 25.4994L149.742 25.4982Z" fill="black"/>
<path d="M172.829 19.2478H172.676C171.178 17.3909 168.699 16.4924 166.375 16.4924C161.369 16.4924 157.758 20.3164 157.758 25.6558C157.758 32.1189 162.763 36.3909 168.492 36.3909C171.124 36.3909 174.016 35.266 176.029 33.6368H176.184L173.499 38.9424C171.331 39.832 168.958 40.0535 166.684 40.0535C158.737 40.0535 152.524 34.4238 152.524 27.1174C152.524 17.4484 159.46 12.8298 167.252 12.8298C169.112 12.8298 171.021 13.05 172.827 13.4942V19.2478H172.829Z" fill="black"/>
<path fill-rule="evenodd" clip-rule="evenodd" d="M88.2707 8.19115C88.2707 5.57839 88.2707 2.56896 88.2707 2.56896C84.8874 4.09432 81.748 6.94733 79.6496 9.72276V11.9126C84.671 8.50773 88.2707 8.35006 88.2707 8.19115Z" fill="black"/>
<path d="M19.103 36.187C11.309 36.187 5.88712 27.3401 5.88712 19.8247C5.88712 19.7483 5.88712 19.0539 5.88836 18.9788C5.98538 11.6973 10.6709 4.86889 18.8455 4.86889C27.4479 4.86889 31.8847 13.0563 31.9569 20.8145C31.9569 20.877 31.9569 21.5603 31.9569 21.6228C31.9581 29.889 26.8472 36.187 19.103 36.187ZM45.8208 44.786C40.0655 45.7333 34.5329 43.9089 28.6532 37.1417C34.3326 34.2737 37.844 27.1336 37.844 20.4979C37.844 20.4303 37.8428 19.7421 37.8428 19.6733C37.7408 8.31878 29.2627 0.822117 19.154 0.822117C9.02658 0.822117 0.0771184 8.62535 0.00124385 20.0687C0.00124385 20.12 0 20.7857 0 20.8345C0 31.9675 8.20937 40.2337 18.2771 40.2337C19.7237 40.2337 21.1155 40.0085 22.5099 39.6706C29.1035 45.8834 34.9794 48.5287 40.058 47.9131C42.4674 47.6215 45.011 46.6592 46.5397 44.6609L45.8208 44.786Z" fill="black"/>
</svg>
