<svg width="189" height="48" viewBox="0 0 189 48" fill="none" xmlns="http://www.w3.org/2000/svg">
<g clip-path="url(#clip0_7863_167949)">
<path d="M179.522 23.6719L188.75 12.1254H181.523L175.527 19.5615L170.056 12.1576L170.031 12.1254H162.829L171.519 23.6719L162.573 35.6816H169.87L175.527 27.8338L181.664 35.6558L181.689 35.6816H189L179.522 23.6719Z" fill="#003B64"/>
<path d="M111.905 12.1254H106.447V35.688H111.905V12.1254Z" fill="#003B64"/>
<path d="M151.812 11.881C149.402 11.881 147.046 12.5978 145.042 13.9407C143.039 15.2837 141.477 17.1925 140.555 19.4258C139.633 21.659 139.391 24.1165 139.861 26.4873C140.332 28.8581 141.492 31.0358 143.196 32.7451C144.9 34.4544 147.071 35.6184 149.435 36.09C151.798 36.5616 154.248 36.3195 156.475 35.3945C158.701 34.4694 160.604 32.9029 161.943 30.893C163.282 28.8832 163.996 26.5202 163.996 24.1029C163.996 20.8614 162.713 17.7528 160.427 15.4607C158.142 13.1686 155.043 11.881 151.812 11.881ZM151.812 30.8957C150.474 30.8957 149.166 30.4977 148.053 29.752C146.94 29.0063 146.073 27.9464 145.561 26.7064C145.049 25.4663 144.915 24.1018 145.176 22.7854C145.437 21.4689 146.082 20.2597 147.028 19.3106C147.974 18.3615 149.179 17.7152 150.492 17.4534C151.804 17.1915 153.165 17.3259 154.401 17.8395C155.637 18.3532 156.694 19.223 157.437 20.339C158.181 21.455 158.577 22.7671 158.577 24.1093C158.576 25.9087 157.862 27.6338 156.594 28.9062C155.325 30.1785 153.606 30.894 151.812 30.8957Z" fill="#003B64"/>
<path d="M126.802 12.119C124.675 12.1587 122.648 13.0341 121.158 14.5569V12.1254H115.701V35.688H121.363V23.1252C121.363 20.3205 123.743 17.5867 126.667 17.5867C129.437 17.5867 131.695 19.9089 131.695 22.9965V35.688H137.357V22.276C137.357 16.6733 133.311 12.119 126.802 12.119Z" fill="#003B64"/>
<path d="M109.173 10.0284C109.709 10.0284 110.234 9.86881 110.68 9.56982C111.126 9.27084 111.473 8.84588 111.679 8.34868C111.884 7.85149 111.938 7.30439 111.833 6.77657C111.728 6.24875 111.47 5.76392 111.091 5.38338C110.711 5.00284 110.228 4.74369 109.702 4.6387C109.176 4.53371 108.63 4.5876 108.135 4.79354C107.639 4.99949 107.215 5.34825 106.917 5.79571C106.619 6.24317 106.46 6.76925 106.46 7.30741C106.462 8.02853 106.748 8.71964 107.256 9.22956C107.765 9.73948 108.454 10.0267 109.173 10.0284Z" fill="#003B64"/>
<path d="M73.8698 14.4026C72.065 13.0162 69.9096 12.164 67.6472 11.9422C65.3848 11.7203 63.1057 12.1378 61.0674 13.1473C59.0292 14.1567 57.3131 15.718 56.1132 17.6547C54.9133 19.5913 54.2774 21.826 54.2774 24.1061C54.2774 26.3863 54.9133 28.621 56.1132 30.5576C57.3131 32.4942 59.0292 34.0555 61.0674 35.065C63.1057 36.0745 65.3848 36.4919 67.6472 36.2701C69.9096 36.0482 72.065 35.196 73.8698 33.8097V35.688H79.3656V12.1254H73.8698V14.4026ZM73.2285 24.1093C73.2285 25.4516 72.8317 26.7636 72.0883 27.8797C71.3449 28.9957 70.2883 29.8655 69.052 30.3791C67.8158 30.8928 66.4554 31.0272 65.143 30.7653C63.8306 30.5035 62.6251 29.8571 61.679 28.908C60.7328 27.9589 60.0884 26.7497 59.8274 25.4333C59.5663 24.1169 59.7003 22.7524 60.2124 21.5123C60.7244 20.2723 61.5916 19.2124 62.7042 18.4667C63.8168 17.721 65.1248 17.323 66.4629 17.323C68.2551 17.328 69.9724 18.0449 71.239 19.3167C72.5057 20.5884 73.2187 22.3116 73.2221 24.1093H73.2285Z" fill="#003B64"/>
<path d="M96.8214 12.1254L88.5745 20.7708V2.38647H83.1171V35.6816H88.5745V28.6379L89.4146 27.7309L96.815 35.6816H103.824L93.0379 23.8134L103.837 12.1254H96.8214Z" fill="#003B64"/>
<path d="M18.6614 24.3152C18.9349 23.7893 19.1022 23.2143 19.1535 22.6233C19.2048 22.0323 19.1391 21.437 18.9604 20.8715C18.7816 20.3061 18.4932 19.7816 18.1117 19.3283C17.7303 18.875 17.2633 18.5017 16.7376 18.23L6.22046 12.6529C5.54665 12.3102 4.96905 11.8038 4.54029 11.1799C4.07398 10.4912 3.80162 9.68904 3.75196 8.85803C3.7023 8.02702 3.87717 7.19797 4.25812 6.45835C4.81636 5.37876 5.77814 4.5649 6.93308 4.19481C8.08801 3.82473 9.34206 3.92854 10.4209 4.48354L24.2598 11.8103C24.4376 11.903 24.6448 11.9212 24.836 11.8609C25.0271 11.8006 25.1866 11.6667 25.2795 11.4886L26.3184 9.48167C26.405 9.30703 26.4207 9.10547 26.3621 8.91947C26.3035 8.73346 26.1751 8.57756 26.0042 8.48462L12.1844 1.14503C11.2122 0.638186 10.1499 0.328395 9.05828 0.233346C7.96666 0.138296 6.86706 0.259849 5.82228 0.591064C3.71224 1.25998 1.95353 2.74229 0.933049 4.7119C-0.0874292 6.68151 -0.286088 8.97709 0.380779 11.0936C1.04765 13.2102 2.52541 14.9743 4.48898 15.9979L14.3391 21.2147C14.6909 21.401 14.9554 21.7187 15.0754 22.0991C15.1954 22.4795 15.1613 22.892 14.9804 23.2474L7.05413 38.5956C6.80751 39.0186 6.73059 39.5199 6.83897 39.9978C6.94735 40.4756 7.23291 40.8942 7.6377 41.1686C7.8597 41.3078 8.10769 41.4001 8.36649 41.4399C8.62529 41.4796 8.88945 41.4659 9.14279 41.3997C9.39614 41.3334 9.63334 41.216 9.83987 41.0546C10.0464 40.8932 10.2179 40.6912 10.3439 40.461L18.6614 24.3152Z" fill="url(#paint0_linear_7863_167949)"/>
<path d="M23.7148 18.7189C24.2388 18.9922 24.8115 19.1592 25.4 19.2101C25.9884 19.261 26.5812 19.195 27.1441 19.0157C27.7071 18.8364 28.2293 18.5475 28.6807 18.1654C29.1322 17.7833 29.504 17.3156 29.7749 16.7891L35.3349 6.25894C35.6765 5.58306 36.1814 5.00368 36.8034 4.5736C37.49 4.10586 38.2897 3.83267 39.1181 3.78285C39.9466 3.73304 40.7731 3.90844 41.5105 4.29057C42.0465 4.56761 42.5226 4.94843 42.9111 5.41104C43.2997 5.87365 43.593 6.40888 43.7742 6.98582C43.9594 7.5573 44.0288 8.1602 43.9781 8.75897C43.9275 9.35775 43.7578 9.9403 43.4792 10.4723L36.1814 24.341C36.1346 24.4282 36.1057 24.5239 36.0962 24.6225C36.0867 24.7211 36.0969 24.8206 36.1261 24.9152C36.1554 25.0098 36.2031 25.0976 36.2665 25.1735C36.33 25.2494 36.4078 25.3119 36.4956 25.3573L38.5028 26.3994C38.6789 26.4923 38.8845 26.5113 39.0745 26.4522C39.2645 26.3931 39.4233 26.2607 39.5161 26.0842L46.8139 12.222C47.8344 10.2523 48.033 7.95677 47.3662 5.84024C46.6993 3.72371 45.2215 1.95959 43.258 0.93597C41.2944 -0.0876474 39.0059 -0.286914 36.8958 0.382004C34.7858 1.05092 33.0271 2.53323 32.0066 4.50284L26.7993 14.3962C26.6161 14.7498 26.3006 15.0161 25.9219 15.1367C25.5432 15.2573 25.1323 15.2223 24.7793 15.0394L9.47819 7.07588C9.05569 6.82913 8.55539 6.75297 8.07893 6.8629C7.60248 6.97282 7.18561 7.26057 6.91304 7.66768C6.76761 7.88789 6.67011 8.13639 6.62692 8.39696C6.58372 8.65753 6.59581 8.92431 6.66238 9.17988C6.72895 9.43544 6.84851 9.67405 7.01325 9.88013C7.178 10.0862 7.38422 10.2551 7.61846 10.3758L23.7148 18.7189Z" fill="url(#paint1_linear_7863_167949)"/>
<path d="M29.3581 23.6848C29.0846 24.2108 28.9173 24.7858 28.866 25.3768C28.8147 25.9677 28.8803 26.5631 29.0591 27.1285C29.2379 27.694 29.5263 28.2185 29.9078 28.6718C30.2892 29.1251 30.7562 29.4983 31.2819 29.7701L41.8055 35.3471C42.4779 35.6894 43.0535 36.196 43.4792 36.8202C43.9455 37.5089 44.2179 38.311 44.2675 39.142C44.3172 39.973 44.1423 40.8021 43.7614 41.5417C43.4862 42.0775 43.1085 42.5536 42.6498 42.9429C42.1911 43.3321 41.6604 43.6269 41.088 43.8103C40.5157 43.9937 39.9129 44.0622 39.3142 44.0118C38.7154 43.9613 38.1325 43.7931 37.5986 43.5165L23.7532 36.1962C23.666 36.1483 23.57 36.1185 23.471 36.1084C23.3721 36.0984 23.2721 36.1083 23.177 36.1377C23.0819 36.1671 22.9937 36.2153 22.9175 36.2795C22.8414 36.3437 22.7788 36.4226 22.7336 36.5114L21.6947 38.5248C21.6041 38.7008 21.5862 38.9055 21.6451 39.0945C21.7039 39.2836 21.8346 39.4417 22.0089 39.5347L35.8287 46.8615C37.7922 47.8851 40.0808 48.0843 42.1908 47.4154C44.3008 46.7465 46.0596 45.2642 47.08 43.2946C48.1005 41.325 48.2992 39.0294 47.6323 36.9129C46.9654 34.7963 45.4877 33.0322 43.5241 32.0086L33.6675 26.7853C33.3162 26.6003 33.0518 26.2837 32.9318 25.9044C32.8117 25.525 32.8457 25.1135 33.0262 24.7591L40.9525 9.40448C41.1878 8.9851 41.2584 8.49269 41.1504 8.02381C41.0425 7.55494 40.7638 7.14344 40.369 6.87004C40.1489 6.72405 39.9007 6.62619 39.6405 6.5828C39.3802 6.53942 39.1138 6.5515 38.8585 6.61825C38.6032 6.685 38.3648 6.80492 38.1588 6.97022C37.9527 7.13551 37.7837 7.34247 37.6627 7.57762L29.3581 23.6848Z" fill="url(#paint2_linear_7863_167949)"/>
<path d="M24.3047 29.2876C23.7804 29.0133 23.2072 28.8455 22.618 28.7941C22.0288 28.7426 21.4353 28.8084 20.8716 28.9877C20.3079 29.1671 19.785 29.4564 19.3331 29.839C18.8812 30.2216 18.5091 30.6901 18.2382 31.2174L12.6782 41.7668C12.338 42.4328 11.8377 43.0032 11.2225 43.4265C10.5359 43.8942 9.73623 44.1674 8.90777 44.2172C8.07931 44.267 7.2528 44.0916 6.51545 43.7095C5.98131 43.4335 5.50664 43.0546 5.11857 42.5945C4.7305 42.1344 4.43665 41.602 4.25381 41.0279C4.07097 40.4538 4.00272 39.8492 4.05298 39.2486C4.10324 38.648 4.27101 38.0633 4.5467 37.5278L11.8638 23.6655C11.9562 23.4872 11.9744 23.2794 11.9143 23.0876C11.8542 22.8959 11.7207 22.7359 11.5431 22.6428L9.53591 21.6007C9.44922 21.5548 9.35435 21.5266 9.25675 21.5176C9.15915 21.5086 9.06074 21.5191 8.96718 21.5484C8.87362 21.5776 8.78676 21.6252 8.71157 21.6883C8.63639 21.7513 8.57438 21.8287 8.52909 21.9159L1.19918 35.7781C0.178704 37.7477 -0.0199524 40.0433 0.646915 42.1598C1.31378 44.2764 2.79155 46.0405 4.75512 47.0641C6.71869 48.0877 9.00722 48.287 11.1173 47.6181C13.2273 46.9491 14.986 45.4668 16.0065 43.4972L21.2137 33.6168C21.3982 33.2644 21.7138 32.9992 22.092 32.8788C22.4702 32.7583 22.8805 32.7924 23.2338 32.9735L38.5413 40.9242C38.9594 41.1602 39.4503 41.231 39.9177 41.1227C40.3852 41.0144 40.7954 40.7348 41.068 40.3388C41.2135 40.1181 41.3111 39.8691 41.3543 39.6081C41.3976 39.347 41.3855 39.0798 41.319 38.8237C41.2524 38.5676 41.1329 38.3285 40.9681 38.1218C40.8033 37.9152 40.597 37.7456 40.3626 37.6243L24.3047 29.2876Z" fill="url(#paint3_linear_7863_167949)"/>
</g>
<defs>
<linearGradient id="paint0_linear_7863_167949" x1="18.8608" y1="52.5085" x2="51.5292" y2="13.9704" gradientUnits="userSpaceOnUse">
<stop stop-color="#2399EE"/>
<stop offset="1" stop-color="#35D0CD"/>
</linearGradient>
<linearGradient id="paint1_linear_7863_167949" x1="18.8608" y1="52.5085" x2="51.5292" y2="13.9704" gradientUnits="userSpaceOnUse">
<stop stop-color="#2399EE"/>
<stop offset="1" stop-color="#35D0CD"/>
</linearGradient>
<linearGradient id="paint2_linear_7863_167949" x1="18.8608" y1="52.5085" x2="51.5292" y2="13.9704" gradientUnits="userSpaceOnUse">
<stop stop-color="#2399EE"/>
<stop offset="1" stop-color="#35D0CD"/>
</linearGradient>
<linearGradient id="paint3_linear_7863_167949" x1="18.8608" y1="52.5085" x2="51.5292" y2="13.9704" gradientUnits="userSpaceOnUse">
<stop stop-color="#2399EE"/>
<stop offset="1" stop-color="#35D0CD"/>
</linearGradient>
<clipPath id="clip0_7863_167949">
<rect width="189" height="48" fill="white"/>
</clipPath>
</defs>
</svg>
