<svg width="127" height="34" viewBox="0 0 127 34" fill="none" xmlns="http://www.w3.org/2000/svg">
<path d="M12.439 18.5713C13.2 17.134 12.6314 15.3657 11.1736 14.6072L4.15788 10.9743C3.71325 10.7438 3.31565 10.4253 3.03776 10.0147C2.3922 9.05092 2.3409 7.90278 2.84965 6.93902C3.22587 6.23086 3.85861 5.70288 4.6367 5.46404C5.4148 5.221 6.23992 5.29223 6.95816 5.65679L16.1713 10.4295C16.4193 10.5552 16.7228 10.4631 16.8511 10.22L17.5437 8.91264C17.6719 8.6738 17.5779 8.37629 17.3342 8.25058L8.12103 3.47365C6.79998 2.8032 5.29509 2.67749 3.87999 3.11748C2.46488 3.55746 1.30629 4.51284 0.626525 5.80345C-0.0575136 7.09825 -0.185771 8.57323 0.26313 9.96022C0.71203 11.3472 1.68679 12.4828 2.99501 13.1448L9.56179 16.5473C10.0492 16.7988 10.2373 17.3896 9.98503 17.8673L4.70083 27.8653C4.39729 28.4352 4.54265 29.1685 5.09416 29.5205C5.72689 29.9227 6.55629 29.6965 6.89403 29.0595L12.439 18.5629V18.5713Z" fill="url(#paint0_linear_8010_153105)"/>
<path d="M15.8079 14.9215C17.2743 15.6674 19.0785 15.1101 19.8523 13.6812L23.5589 6.80493C23.7941 6.36914 24.119 5.97944 24.538 5.70707C25.5213 5.07434 26.6927 5.02406 27.676 5.5227C28.3985 5.89145 28.9372 6.51161 29.1809 7.27424C29.4288 8.03687 29.3562 8.8456 28.9842 9.54957L24.1147 18.5796C23.9865 18.8227 24.0805 19.1202 24.3285 19.2459L25.6624 19.9247C25.906 20.0504 26.2096 19.9582 26.3378 19.7194L31.2031 10.6893C31.8871 9.39453 32.0154 7.91955 31.5665 6.53256C31.1176 5.14557 30.1428 4.01001 28.826 3.34375C27.505 2.6733 26.0001 2.5476 24.585 2.98758C23.1699 3.42756 22.0113 4.38294 21.3358 5.66517L17.8643 12.1015C17.6078 12.5791 17.005 12.7635 16.5176 12.5163L6.31688 7.34129C5.73544 7.04378 4.98727 7.18625 4.62815 7.72679C4.21773 8.34696 4.44859 9.15987 5.09843 9.4909L15.8079 14.9257V14.9215Z" fill="url(#paint1_linear_8010_153105)"/>
<path d="M19.5701 18.1606C18.8091 19.5979 19.3777 21.3662 20.8356 22.1246L27.8513 25.7576C28.2959 25.9881 28.6935 26.3065 28.9714 26.7172C29.617 27.6809 29.6683 28.8291 29.1595 29.7928C28.7833 30.501 28.1505 31.029 27.3725 31.2678C26.5944 31.5109 25.7692 31.4396 25.051 31.0751L15.8378 26.3023C15.5899 26.1766 15.2863 26.2688 15.1581 26.5119L14.4655 27.8192C14.3372 28.0581 14.4313 28.3556 14.675 28.4813L23.8881 33.2498C25.2092 33.9203 26.7141 34.046 28.1292 33.606C29.5443 33.166 30.7029 32.2106 31.3826 30.92C32.0667 29.6252 32.1949 28.1503 31.746 26.7633C31.2971 25.3763 30.3224 24.2407 29.0141 23.5787L22.4474 20.1761C21.96 19.9247 21.7719 19.3339 22.0241 18.8562L27.3083 8.85817C27.6119 8.28829 27.4665 7.55499 26.915 7.20301C26.2823 6.80074 25.4529 7.02701 25.1151 7.66394L19.5701 18.1606Z" fill="url(#paint2_linear_8010_153105)"/>
<path d="M16.2012 21.8062C14.7348 21.0603 12.9307 21.6176 12.1569 23.0465L8.45022 29.9228C8.21508 30.3585 7.89016 30.7482 7.47119 31.0206C6.48788 31.6533 5.31647 31.7036 4.33316 31.205C3.61065 30.8362 3.07196 30.2161 2.82828 29.4534C2.58031 28.6908 2.65299 27.8821 3.02494 27.1781L7.89444 18.148C8.0227 17.905 7.92864 17.6075 7.68068 17.4818L6.3468 16.803C6.10311 16.6772 5.79957 16.7694 5.67131 17.0083L0.801811 26.0384C0.117771 27.3332 -0.0104859 28.8081 0.438415 30.1951C0.887315 31.5821 1.86207 32.7177 3.17885 33.3839C4.4999 34.0544 6.00478 34.1801 7.41989 33.7401C8.83499 33.3001 9.99358 32.3447 10.6691 31.0625L14.1406 24.6262C14.3971 24.1485 14.9999 23.9642 15.4873 24.2114L25.688 29.3906C26.2694 29.6881 27.0176 29.5456 27.3767 29.0051C27.7872 28.3849 27.5563 27.572 26.9065 27.241L16.197 21.8062H16.2012Z" fill="url(#paint3_linear_8010_153105)"/>
<path d="M119.679 18.1482L125.831 10.6308H121.013L117.016 15.4748L113.369 10.6517L113.352 10.6308H108.551L114.344 18.1482L108.38 25.9756H113.245L117.016 20.8635L121.107 25.9547L121.124 25.9756H125.998L119.679 18.1482Z" fill="#003B64"/>
<path d="M74.6011 10.6308H70.9628V25.9798H74.6011V10.6308Z" fill="#003B64"/>
<path d="M101.206 10.4673C96.7255 10.4673 93.0787 14.0417 93.0787 18.4331C93.0787 22.8245 96.7255 26.3988 101.206 26.3988C105.686 26.3988 109.333 22.8245 109.333 18.4331C109.333 14.0417 105.686 10.4673 101.206 10.4673ZM101.206 22.8538C98.7177 22.8538 96.6955 20.8718 96.6955 18.4331C96.6955 15.9943 98.7177 14.0123 101.206 14.0123C103.694 14.0123 105.716 15.9943 105.716 18.4331C105.716 20.8718 103.694 22.8538 101.206 22.8538Z" fill="#003B64"/>
<path d="M84.5325 10.6224C83.1687 10.6224 81.5868 11.297 80.7702 12.2147V10.6308H77.132V25.9756H80.9071V17.792C80.9071 15.9692 82.4932 14.1883 84.4384 14.1883C86.3836 14.1883 87.7902 15.701 87.7902 17.7123V25.9756H91.5652V17.243C91.5652 13.5933 88.8676 10.6224 84.5282 10.6224H84.5325Z" fill="#003B64"/>
<path d="M72.7798 9.26056C73.7759 9.26056 74.5882 8.46441 74.5882 7.48807C74.5882 6.51173 73.7759 5.71558 72.7798 5.71558C71.7837 5.71558 70.9714 6.51173 70.9714 7.48807C70.9714 8.46441 71.7837 9.26056 72.7798 9.26056Z" fill="#003B64"/>
<path d="M49.2446 12.1142C47.8338 11.054 46.0809 10.4716 44.3024 10.4716C39.822 10.4716 36.1752 14.0459 36.1752 18.4373C36.1752 22.8287 39.822 26.403 44.3024 26.403C46.0809 26.403 47.8338 25.8206 49.2446 24.7604V25.9798H52.9085V10.6308H49.2446V12.1142ZM48.8128 18.4373C48.8128 20.876 46.7906 22.858 44.3024 22.858C41.8142 22.858 39.792 20.876 39.792 18.4373C39.792 15.9985 41.8142 14.0165 44.3024 14.0165C46.7906 14.0165 48.8128 15.9985 48.8128 18.4373Z" fill="#003B64"/>
<path d="M64.5457 10.6308L59.0477 16.2625V4.28668H55.4095V25.9756H59.0477V21.3872L59.6078 20.7964L64.5414 25.9756H69.2142L62.0233 18.2403L69.2228 10.6308H64.5457Z" fill="#003B64"/>
<path d="M84.2706 2.9293C84.1509 3.1543 83.9627 3.33603 83.702 3.47881C83.4412 3.6216 83.1077 3.69083 82.7015 3.69083H81.808V5.7158H81V0.726929H82.7058C83.0863 0.726929 83.407 0.791832 83.6678 0.925965C83.9285 1.05577 84.1252 1.2375 84.2577 1.4625C84.386 1.68749 84.4544 1.93845 84.4544 2.21537C84.4544 2.47065 84.3945 2.70863 84.2748 2.93363L84.2706 2.9293ZM83.3899 2.81248C83.5395 2.66969 83.6165 2.47065 83.6165 2.21104C83.6165 1.66586 83.3129 1.39327 82.7015 1.39327H81.808V3.02449H82.7015C83.0094 3.02449 83.2402 2.95526 83.3899 2.81248Z" fill="#003B64"/>
<path d="M86.5749 1.86485C86.7716 1.75236 87.0025 1.69611 87.2761 1.69611V2.54417H87.0709C86.7545 2.54417 86.5151 2.62638 86.3483 2.7908C86.1859 2.95522 86.1047 3.23647 86.1047 3.63887V5.72009H85.2966V1.76101H86.1047V2.33648C86.2244 2.13745 86.3783 1.97735 86.5749 1.86485Z" fill="#003B64"/>
<path d="M88.7852 5.52971C88.486 5.36097 88.2508 5.11866 88.0841 4.81145C87.9131 4.50425 87.8276 4.14512 87.8276 3.73839C87.8276 3.33167 87.9131 2.98119 88.0884 2.66966C88.2637 2.35812 88.5031 2.12015 88.8066 1.9514C89.1102 1.78265 89.4479 1.70044 89.8198 1.70044C90.1918 1.70044 90.5338 1.78265 90.8331 1.9514C91.1366 2.12015 91.376 2.35812 91.5513 2.66966C91.7266 2.98119 91.8121 3.33599 91.8121 3.73839C91.8121 4.14079 91.7223 4.49559 91.5428 4.80713C91.3632 5.11866 91.1195 5.36097 90.8074 5.52971C90.4996 5.69846 90.1576 5.785 89.7814 5.785C89.4051 5.785 89.0802 5.69846 88.781 5.52971H88.7852ZM90.3713 4.92395C90.5552 4.82443 90.7005 4.67299 90.816 4.46963C90.9314 4.2706 90.987 4.02397 90.987 3.73839C90.987 3.45282 90.9314 3.20619 90.8245 3.00715C90.7176 2.80812 90.5723 2.65668 90.3927 2.55716C90.2132 2.45764 90.0208 2.40572 89.8113 2.40572C89.6018 2.40572 89.4094 2.45764 89.2341 2.55716C89.0546 2.65668 88.9178 2.80812 88.8109 3.00715C88.7083 3.20619 88.6527 3.44849 88.6527 3.73839C88.6527 4.16675 88.7596 4.49559 88.9776 4.72492C89.1914 4.95857 89.465 5.07539 89.7899 5.07539C89.9994 5.07539 90.1918 5.02347 90.3756 4.92395H90.3713Z" fill="#003B64"/>
<path d="M94.0609 1.88216C94.296 1.75668 94.5654 1.69611 94.8646 1.69611C95.2067 1.69611 95.5187 1.78264 95.7966 1.95139C96.0788 2.12014 96.3011 2.35812 96.4593 2.66532C96.6218 2.97253 96.6987 3.32301 96.6987 3.72108C96.6987 4.11915 96.6175 4.47395 96.4593 4.78981C96.2968 5.10567 96.0788 5.34798 95.7966 5.52538C95.5145 5.69845 95.2024 5.78932 94.8646 5.78932C94.5654 5.78932 94.3003 5.72874 94.0694 5.60759C93.8386 5.48644 93.6462 5.335 93.5008 5.15327V7.61093H92.6928V1.76101H93.5008V2.34081C93.6376 2.15908 93.8257 2.00764 94.0609 1.88216ZM95.7111 3.0158C95.6 2.81676 95.4546 2.66532 95.2708 2.56148C95.0869 2.45763 94.8946 2.40571 94.6851 2.40571C94.4756 2.40571 94.2875 2.45763 94.1079 2.56148C93.9241 2.66532 93.7787 2.82109 93.6676 3.02013C93.5564 3.22349 93.5008 3.45714 93.5008 3.72973C93.5008 4.00232 93.5564 4.2403 93.6676 4.44366C93.7787 4.64703 93.9241 4.80279 94.1079 4.90664C94.2918 5.01048 94.4841 5.06673 94.6851 5.06673C94.886 5.06673 95.0869 5.01481 95.2708 4.90664C95.4546 4.79847 95.6 4.6427 95.7111 4.43501C95.8223 4.22732 95.8779 3.98934 95.8779 3.71675C95.8779 3.44416 95.8223 3.20618 95.7111 3.00715V3.0158Z" fill="#003B64"/>
<path d="M101.115 1.76105V5.72013H100.307V5.25283C100.179 5.41725 100.012 5.54273 99.8068 5.63792C99.6016 5.73311 99.3835 5.77638 99.1484 5.77638C98.8406 5.77638 98.567 5.71147 98.3233 5.58167C98.0796 5.45186 97.8872 5.26148 97.7461 5.00619C97.605 4.75091 97.5366 4.4437 97.5366 4.08457V1.76105H98.3404V3.96775C98.3404 4.32255 98.4259 4.59514 98.6012 4.7812C98.7764 4.97158 99.0159 5.06677 99.3194 5.06677C99.6229 5.06677 99.8624 4.97158 100.042 4.7812C100.221 4.59082 100.307 4.31822 100.307 3.96775V1.76105H101.115Z" fill="#003B64"/>
<path d="M103.06 0.402405V5.72012H102.252V0.402405H103.06Z" fill="#003B64"/>
<path d="M104.792 5.61625C104.548 5.50375 104.356 5.35231 104.215 5.1576C104.073 4.96289 103.997 4.74655 103.988 4.50857H104.826C104.839 4.67732 104.92 4.81578 105.065 4.92828C105.211 5.04078 105.39 5.09703 105.608 5.09703C105.826 5.09703 106.01 5.05376 106.138 4.96289C106.262 4.87203 106.327 4.75953 106.327 4.62107C106.327 4.47396 106.258 4.36146 106.117 4.29223C105.976 4.21867 105.758 4.14079 105.454 4.05425C105.159 3.97204 104.92 3.89416 104.736 3.81628C104.552 3.73839 104.39 3.62157 104.257 3.4658C104.125 3.31003 104.056 3.09802 104.056 2.84273C104.056 2.63072 104.116 2.44033 104.24 2.26293C104.364 2.08986 104.539 1.9514 104.77 1.85188C105.001 1.75236 105.262 1.70044 105.561 1.70044C106.006 1.70044 106.365 1.81294 106.639 2.04226C106.912 2.27159 107.058 2.57879 107.075 2.97254H106.267C106.254 2.79514 106.181 2.65235 106.053 2.5485C105.925 2.44466 105.754 2.39274 105.536 2.39274C105.318 2.39274 105.159 2.43168 105.044 2.51389C104.929 2.5961 104.873 2.70427 104.873 2.8384C104.873 2.94225 104.911 3.03311 104.988 3.10234C105.065 3.1759 105.155 3.23215 105.266 3.27109C105.377 3.31003 105.536 3.36196 105.749 3.42686C106.032 3.50474 106.267 3.58263 106.451 3.66051C106.634 3.73839 106.788 3.85522 106.921 4.01098C107.053 4.16243 107.122 4.36579 107.126 4.62107C107.126 4.84607 107.066 5.04943 106.942 5.22251C106.818 5.39991 106.647 5.53837 106.421 5.63789C106.194 5.7374 105.933 5.78933 105.63 5.78933C105.326 5.78933 105.048 5.73308 104.805 5.62058L104.792 5.61625Z" fill="#003B64"/>
<path d="M111.615 4.04562H108.627C108.652 4.36148 108.768 4.61676 108.973 4.80715C109.182 4.99753 109.439 5.09705 109.738 5.09705C110.174 5.09705 110.482 4.91099 110.662 4.54321H111.534C111.414 4.90666 111.2 5.20522 110.893 5.43887C110.58 5.67252 110.196 5.78934 109.738 5.78934C109.366 5.78934 109.029 5.70281 108.734 5.53406C108.439 5.36531 108.208 5.12301 108.037 4.8158C107.87 4.50859 107.784 4.14946 107.784 3.74274C107.784 3.33601 107.866 2.97688 108.028 2.66968C108.191 2.36247 108.421 2.12449 108.716 1.95574C109.011 1.78699 109.353 1.70478 109.734 1.70478C110.114 1.70478 110.431 1.78699 110.722 1.94709C111.008 2.11151 111.235 2.34083 111.397 2.63506C111.559 2.92929 111.636 3.26678 111.636 3.65187C111.636 3.79899 111.628 3.93312 111.606 4.05427L111.615 4.04562ZM110.798 3.38361C110.794 3.08073 110.687 2.83842 110.478 2.65669C110.268 2.47497 110.012 2.3841 109.704 2.3841C109.426 2.3841 109.187 2.47497 108.986 2.65237C108.789 2.8341 108.669 3.0764 108.631 3.38361H110.794H110.798ZM110.452 0.696625L108.883 1.47979V0.878353L110.452 0V0.696625Z" fill="#003B64"/>
<path d="M115.796 1.88216C116.031 1.75668 116.301 1.69611 116.6 1.69611C116.942 1.69611 117.254 1.78264 117.532 1.95139C117.814 2.12014 118.036 2.35812 118.195 2.66532C118.357 2.97253 118.434 3.32301 118.434 3.72108C118.434 4.11915 118.353 4.47395 118.195 4.78981C118.032 5.10567 117.814 5.34798 117.532 5.52538C117.25 5.69845 116.938 5.78932 116.6 5.78932C116.301 5.78932 116.036 5.72874 115.805 5.60759C115.574 5.48644 115.382 5.335 115.236 5.15327V7.61093H114.428V1.76101H115.236V2.34081C115.373 2.15908 115.561 2.00764 115.796 1.88216ZM117.446 3.0158C117.335 2.81676 117.19 2.66532 117.006 2.56148C116.822 2.45763 116.63 2.40571 116.42 2.40571C116.211 2.40571 116.023 2.45763 115.843 2.56148C115.659 2.66532 115.514 2.82109 115.403 3.02013C115.292 3.22349 115.236 3.45714 115.236 3.72973C115.236 4.00232 115.292 4.2403 115.403 4.44366C115.514 4.64703 115.659 4.80279 115.843 4.90664C116.027 5.01048 116.219 5.06673 116.42 5.06673C116.621 5.06673 116.822 5.01481 117.006 4.90664C117.19 4.79847 117.335 4.6427 117.446 4.43501C117.558 4.22732 117.613 3.98934 117.613 3.71675C117.613 3.44416 117.558 3.20618 117.446 3.00715V3.0158Z" fill="#003B64"/>
<path d="M119.285 2.66532C119.447 2.35812 119.67 2.12014 119.952 1.95139C120.234 1.78264 120.546 1.69611 120.884 1.69611C121.192 1.69611 121.461 1.75668 121.688 1.87783C121.918 1.99899 122.102 2.15043 122.239 2.33215V1.75668H123.056V5.72009H122.239V5.13164C122.102 5.31769 121.914 5.47346 121.679 5.59894C121.444 5.72442 121.174 5.78499 120.871 5.78499C120.533 5.78499 120.225 5.69846 119.947 5.52105C119.67 5.34798 119.447 5.10135 119.285 4.78549C119.122 4.47395 119.041 4.11482 119.041 3.71675C119.041 3.31868 119.122 2.9682 119.285 2.661V2.66532ZM122.077 3.02445C121.965 2.82542 121.82 2.66965 121.64 2.56581C121.461 2.46196 121.264 2.41004 121.059 2.41004C120.854 2.41004 120.657 2.46196 120.478 2.56581C120.298 2.66965 120.153 2.82109 120.042 3.02013C119.93 3.21916 119.875 3.45281 119.875 3.72973C119.875 4.00665 119.93 4.2403 120.042 4.44799C120.153 4.65568 120.298 4.81145 120.482 4.91962C120.666 5.02779 120.858 5.07971 121.059 5.07971C121.26 5.07971 121.461 5.02779 121.64 4.91962C121.82 4.81577 121.965 4.66001 122.077 4.45665C122.188 4.25328 122.243 4.0153 122.243 3.74271C122.243 3.47012 122.188 3.23214 122.077 3.03311V3.02445Z" fill="#003B64"/>
<path d="M125.475 1.86485C125.672 1.75236 125.903 1.69611 126.177 1.69611V2.54417H125.971C125.655 2.54417 125.416 2.62638 125.249 2.7908C125.086 2.95522 125.005 3.23647 125.005 3.63887V5.72009H124.197V1.76101H125.005V2.33648C125.125 2.13745 125.279 1.97735 125.475 1.86485Z" fill="#003B64"/>
<defs>
<linearGradient id="paint0_linear_8010_153105" x1="12.575" y1="36.9294" x2="33.7638" y2="11.3484" gradientUnits="userSpaceOnUse">
<stop stop-color="#2399EE"/>
<stop offset="1" stop-color="#35D0CD"/>
</linearGradient>
<linearGradient id="paint1_linear_8010_153105" x1="12.575" y1="36.9294" x2="33.7638" y2="11.3484" gradientUnits="userSpaceOnUse">
<stop stop-color="#2399EE"/>
<stop offset="1" stop-color="#35D0CD"/>
</linearGradient>
<linearGradient id="paint2_linear_8010_153105" x1="12.575" y1="36.9294" x2="33.7638" y2="11.3484" gradientUnits="userSpaceOnUse">
<stop stop-color="#2399EE"/>
<stop offset="1" stop-color="#35D0CD"/>
</linearGradient>
<linearGradient id="paint3_linear_8010_153105" x1="12.575" y1="36.9294" x2="33.7638" y2="11.3484" gradientUnits="userSpaceOnUse">
<stop stop-color="#2399EE"/>
<stop offset="1" stop-color="#35D0CD"/>
</linearGradient>
</defs>
</svg>
